# xmcd CD database file
#
# Track frame offsets:
#	150
#	14160
#	28446
#	41065
#	54328
#	70599
#	83199
#	97051
#	110479
#	122316
#	136334
#	149178
#	162635
#	174553
#	187488
#	201868
#	217430
#	230048
#	244323
#	258757
#	272560
#	284852
#	296477
#
# Disc length: 4138 seconds
#
# Revision: 3
# Processed by: cddbd v1.4PL0 Copyright (c) Steve Scherf et al.
# Submitted via: CDex 1.40Beta9
#
DISCID=83102817
DTITLE=Julio Sosa - Todo Sosa - De Fm Tango Para Usted (Disco 1)
DYEAR=1991
DGENRE=Tango
TTITLE0=Leopoldo Federico - Julio Sosa - La Cumparsita
TTITLE1=Leopoldo Federico - Julio Sosa - Recordándote
TTITLE2=Leopoldo Federico - Julio Sosa - Canchero
TTITLE3=Leopoldo Federico - Julio Sosa - Si No Me Engaña El Corazón
TTITLE4=Leopoldo Federico - Julio Sosa - Tarde
TTITLE5=Leopoldo Federico - Julio Sosa - Amor En Remolino
TTITLE6=Leopoldo Federico - Julio Sosa - Tabaco
TTITLE7=Leopoldo Federico - Julio Sosa - No Nos Veremos Más
TTITLE8=Leopoldo Federico - Julio Sosa - As De Cartón
TTITLE9=Leopoldo Federico - Julio Sosa - Mala Suerte
TTITLE10=Leopoldo Federico - Julio Sosa - Monserga
TTITLE11=Leopoldo Federico - Julio Sosa - Secreto
TTITLE12=Leopoldo Federico - Julio Sosa - Amurado
TTITLE13=Leopoldo Federico - Julio Sosa - Qué Me Quiten Lo Bailado
TTITLE14=Leopoldo Federico - Julio Sosa - Dicha Pasada
TTITLE15=Leopoldo Federico - Julio Sosa - Milonga En Rojo
TTITLE16=Leopoldo Federico - Julio Sosa - Cachadora
TTITLE17=Leopoldo Federico - Julio Sosa - Destellos
TTITLE18=Leopoldo Federico - Julio Sosa - En La Madrugada
TTITLE19=Leopoldo Federico - Julio Sosa - Margot
TTITLE20=Leopoldo Federico - Julio Sosa - Total Pa' Que Sirvo
TTITLE21=Leopoldo Federico - Julio Sosa - Araca Corazón
TTITLE22=Leopoldo Federico - Julio Sosa - Viejo Rincón
EXTD=YEAR: 1991 ID3G: 113
EXTT0=
EXTT1=
EXTT2=
EXTT3=
EXTT4=
EXTT5=
EXTT6=
EXTT7=
EXTT8=
EXTT9=
EXTT10=
EXTT11=
EXTT12=
EXTT13=
EXTT14=
EXTT15=
EXTT16=
EXTT17=
EXTT18=
EXTT19=
EXTT20=
EXTT21=
EXTT22=
PLAYORDER=
